<svg width="652" height="202" viewBox="0 0 652 202" fill="none" xmlns="http://www.w3.org/2000/svg">
<g filter="url(#filter0_d_40_15)">
<path d="M330.24 34.715L327.195 51.41C325.305 62.015 315.015 70.52 304.2 70.52L270.705 70.625C270.18 70.625 269.76 70.94 269.655 71.465L267.24 85.01C266.82 87.215 264.615 89 262.41 89H248.55C246.24 89 244.665 87.215 245.085 85.01L256.95 19.595C257.37 17.39 259.47 15.5 261.78 15.5H314.175C324.99 15.5 332.13 24.11 330.24 34.715ZM307.455 37.55C307.875 35.555 306.51 33.875 304.41 33.875H277.32C276.9 33.875 276.375 34.295 276.375 34.715L273.33 51.41C273.225 51.83 273.54 52.145 274.065 52.145H301.155C303.15 52.145 305.145 50.57 305.46 48.575L307.455 37.55ZM335.655 89.105V89C333.345 89 331.77 87.215 332.19 85.01L344.055 19.595C344.475 17.39 346.575 15.5 348.885 15.5H401.28C412.095 15.5 419.235 24.11 417.345 34.715L414.3 51.41C413.04 58.655 407.685 64.955 401.07 68.21C400.545 68.42 400.335 68.945 400.545 69.365L409.155 84.38C410.31 86.375 408.945 88.895 406.635 88.895C399.39 88.895 394.875 89.105 391.935 89C386.895 89.105 385.215 88.895 384.375 87.11L376.395 71.675C376.08 70.94 375.345 70.625 374.61 70.625H357.81C357.285 70.625 356.865 70.94 356.865 71.465L354.345 85.01C353.925 87.215 351.825 89.105 349.515 89.105H335.655ZM363.48 34.715L360.435 51.305C360.33 51.83 360.645 52.145 361.17 52.145H388.26C390.255 52.145 392.25 50.57 392.565 48.575L394.56 37.55C394.98 35.555 393.615 33.875 391.515 33.875H364.425C364.005 33.875 363.585 34.295 363.48 34.715ZM437.73 15.605H451.59C453.9 15.605 455.475 17.39 455.055 19.7L443.19 85.01C442.77 87.215 440.67 89 438.36 89H424.5C422.19 89 420.615 87.215 421.035 85.01L432.9 19.7C433.32 17.39 435.42 15.605 437.73 15.605ZM474.615 89C463.8 89 456.66 80.495 458.655 69.89L465.06 34.505C467.055 24.005 477.345 15.395 488.055 15.395H528.69C531 15.395 532.47 17.285 532.05 19.49L530.16 30.41C529.74 32.615 527.535 34.4 525.225 34.4H489.84C488.475 34.4 487.215 35.555 486.9 36.92L481.44 67.37C481.125 68.735 482.07 69.785 483.435 69.785H518.82C521.13 69.785 522.6 71.675 522.285 73.88L520.185 85.01C519.87 87.215 517.665 89 515.355 89H474.615ZM534.933 89C532.623 89 531.048 87.215 531.468 85.01L543.333 19.49C543.753 17.285 545.958 15.395 548.163 15.395H610.113C611.478 15.395 612.423 16.55 612.108 17.915L609.693 31.775C609.378 33.14 608.118 34.19 606.753 34.19H563.703C563.283 34.19 562.758 34.61 562.758 35.03L561.393 42.59C561.288 43.01 561.603 43.43 562.023 43.43H596.673C598.038 43.43 598.878 44.48 598.668 45.845L596.358 58.655C596.148 59.915 594.783 61.07 593.418 61.07H558.873C558.348 61.07 557.928 61.385 557.823 61.91L556.563 68.945C556.458 69.365 556.773 69.785 557.298 69.785H600.243C601.713 69.785 602.553 70.835 602.343 72.2L599.718 86.585C599.508 87.95 598.248 89 596.778 89H534.933ZM223.196 171C212.381 171 205.241 162.495 207.236 151.89L213.641 116.505C215.636 106.005 225.926 97.395 236.636 97.395H277.271C279.581 97.395 281.051 99.285 280.631 101.49L278.741 112.41C278.321 114.615 276.116 116.4 273.806 116.4H238.421C237.056 116.4 235.796 117.555 235.481 118.92L230.021 149.37C229.706 150.735 230.651 151.785 232.016 151.785H267.401C269.711 151.785 271.181 153.675 270.866 155.88L268.766 167.01C268.451 169.215 266.246 171 263.936 171H223.196ZM361.213 97.605C363.523 97.605 364.993 99.39 364.678 101.7L352.813 167.01C352.393 169.215 350.188 171 347.983 171H334.123C331.813 171 330.238 169.215 330.658 167.01L334.858 143.7C334.963 143.28 334.648 142.86 334.228 142.86H307.348C306.823 142.86 306.403 143.28 306.298 143.7L302.098 167.01C301.678 169.215 299.578 171 297.268 171H283.408C281.098 171 279.523 169.215 279.943 167.01L291.808 101.7C292.228 99.39 294.328 97.605 296.638 97.605H310.498C312.808 97.605 314.383 99.39 313.963 101.7L309.763 124.485C309.763 124.905 310.078 125.325 310.498 125.325H337.378C337.798 125.325 338.218 124.905 338.323 124.485L342.418 101.7C342.838 99.39 345.043 97.605 347.353 97.605H361.213ZM361.078 169.32C360.658 168.27 360.868 167.01 361.603 165.96L404.128 101.49C406.333 98.55 409.063 97.815 412.843 97.71C412.843 97.71 412.843 97.71 412.948 97.71C413.893 97.605 415.048 97.71 416.203 97.71C416.413 97.71 416.623 97.71 416.833 97.71C417.253 97.71 417.568 97.71 418.093 97.71C419.563 97.71 421.243 97.71 423.238 97.71C423.238 97.71 426.913 97.605 428.278 101.49L449.278 165.96C449.593 167.01 449.383 168.27 448.648 169.32C447.913 170.37 446.863 171 445.708 171H428.908C427.753 171 426.808 170.37 426.493 169.215L424.603 163.125H389.113L387.748 165.33L384.913 169.215C384.178 170.37 382.813 171 381.553 171H363.808C362.548 171 361.498 170.37 361.078 169.32ZM413.158 126.48L400.663 145.59H419.248L413.158 126.48ZM474.232 97.605H490.297C491.977 97.605 493.237 98.55 493.657 100.02L506.152 145.485C506.467 146.325 507.622 146.535 508.042 145.8L538.597 100.02C539.542 98.55 541.222 97.605 542.797 97.605H558.862C561.172 97.605 562.642 99.495 562.222 101.7L550.462 167.01C550.042 169.215 547.837 171 545.632 171H533.032C530.827 171 529.252 169.215 529.672 167.01L534.397 140.865L515.812 168.69C514.867 170.16 513.187 171 511.612 171H495.022C493.342 171 492.082 170.16 491.662 168.69L483.052 140.97L478.327 167.01C478.012 169.215 475.807 171 473.497 171H461.002C458.692 171 457.117 169.215 457.537 167.01L469.402 101.7C469.717 99.495 471.922 97.605 474.232 97.605ZM649.384 116.715L646.339 133.41C644.449 144.015 634.159 152.52 623.344 152.52L589.849 152.625C589.324 152.625 588.904 152.94 588.799 153.465L586.384 167.01C585.964 169.215 583.759 171 581.554 171H567.694C565.384 171 563.809 169.215 564.229 167.01L576.094 101.595C576.514 99.39 578.614 97.5 580.924 97.5H633.319C644.134 97.5 651.274 106.11 649.384 116.715ZM626.599 119.55C627.019 117.555 625.654 115.875 623.554 115.875H596.464C596.044 115.875 595.519 116.295 595.519 116.715L592.474 133.41C592.369 133.83 592.684 134.145 593.209 134.145H620.299C622.294 134.145 624.289 132.57 624.604 130.575L626.599 119.55Z" fill="#FCFAEE"/>
</g>
<g filter="url(#filter1_d_40_15)">
<path d="M179 4H125.667L48.6293 109.687H101.962L179 4Z" fill="#BF392C"/>
<path d="M19 4H72.3331L149.37 109.687H96.0369L19 4Z" fill="#E2574C"/>
<path d="M101.963 59.625C138.111 59.625 167.148 86.8814 167.148 120.813C167.148 154.744 138.111 182 101.963 182C65.815 182 36.7777 154.744 36.7777 120.813C36.7777 86.8814 65.815 59.625 101.963 59.625Z" fill="#EFC75E"/>
<path d="M101.963 76.3125C75.8892 76.3125 54.5554 96.3373 54.5554 120.813C54.5554 145.288 75.8885 165.313 101.963 165.313C128.038 165.313 149.371 145.288 149.371 120.813C149.371 96.3373 128.037 76.3125 101.963 76.3125ZM101.963 154.187C82.4073 154.187 66.4076 139.168 66.4076 120.813C66.4076 102.457 82.408 87.4378 101.963 87.4378C121.518 87.4378 137.518 102.457 137.518 120.813C137.518 139.168 121.518 154.187 101.963 154.187Z" fill="#D7B354"/>
</g>
<defs>
<filter id="filter0_d_40_15" x="190.241" y="15.3945" width="461.033" height="171.605" filterUnits="userSpaceOnUse" color-interpolation-filters="sRGB">
<feFlood flood-opacity="0" result="BackgroundImageFix"/>
<feColorMatrix in="SourceAlpha" type="matrix" values="0 0 0 0 0 0 0 0 0 0 0 0 0 0 0 0 0 0 127 0" result="hardAlpha"/>
<feOffset dx="-8" dy="9"/>
<feGaussianBlur stdDeviation="3.5"/>
<feComposite in2="hardAlpha" operator="out"/>
<feColorMatrix type="matrix" values="0 0 0 0 0 0 0 0 0 0 0 0 0 0 0 0 0 0 0.27 0"/>
<feBlend mode="normal" in2="BackgroundImageFix" result="effect1_dropShadow_40_15"/>
<feBlend mode="normal" in="SourceGraphic" in2="effect1_dropShadow_40_15" result="shape"/>
</filter>
<filter id="filter1_d_40_15" x="0.7" y="2.7" width="178.3" height="194.6" filterUnits="userSpaceOnUse" color-interpolation-filters="sRGB">
<feFlood flood-opacity="0" result="BackgroundImageFix"/>
<feColorMatrix in="SourceAlpha" type="matrix" values="0 0 0 0 0 0 0 0 0 0 0 0 0 0 0 0 0 0 127 0" result="hardAlpha"/>
<feOffset dx="-10" dy="7"/>
<feGaussianBlur stdDeviation="4.15"/>
<feComposite in2="hardAlpha" operator="out"/>
<feColorMatrix type="matrix" values="0 0 0 0 0 0 0 0 0 0 0 0 0 0 0 0 0 0 0.33 0"/>
<feBlend mode="normal" in2="BackgroundImageFix" result="effect1_dropShadow_40_15"/>
<feBlend mode="normal" in="SourceGraphic" in2="effect1_dropShadow_40_15" result="shape"/>
</filter>
</defs>
</svg>
